ffmpeg started on 2016-12-02 at 13:16:02
Report written to "Output/x264/results/ffmpeg/old_town_cross_2160p50veryslow2000k.log"
Command line:
Tools/ffmpeg/ffmpeg -benchmark -y -i Input/y4m/old_town_cross_2160p50.y4m -c:v libx264 -preset veryslow -b:v 2000k -an Output/x264/encoded/old_town_cross_2160p50veryslow2000k.mkv
ffmpeg version N-82227-gdb23fde Copyright (c) 2000-2016 the FFmpeg developers
  built with gcc 5.4.0 (Ubuntu 5.4.0-6ubuntu1~16.04.2) 20160609
  configuration: --prefix=/home/jaroslav/ffmpeg_build --pkg-config-flags=--static --extra-cflags=-I/home/jaroslav/ffmpeg_build/include --extra-ldflags=-L/home/jaroslav/ffmpeg_build/lib --bindir=/home/jaroslav/bin --enable-gpl --enable-libass --enable-libfdk-aac --enable-libfreetype --enable-libmp3lame --enable-libopus --enable-libtheora --enable-libvorbis --enable-libvpx --enable-libx264 --enable-libx265 --enable-nvenc --enable-libmfx --enable-libxvid --enable-libgsm --enable-libopencore-amrnb --enable-version3 --enable-nonfree
  libavutil      55. 35.100 / 55. 35.100
  libavcodec     57. 66.101 / 57. 66.101
  libavformat    57. 57.100 / 57. 57.100
  libavdevice    57.  2.100 / 57.  2.100
  libavfilter     6. 66.100 /  6. 66.100
  libswscale      4.  3.100 /  4.  3.100
  libswresample   2.  4.100 /  2.  4.100
  libpostproc    54.  2.100 / 54.  2.100
Input #0, yuv4mpegpipe, from 'Input/y4m/old_town_cross_2160p50.y4m':
  Duration: 00:00:10.00, start: 0.000000, bitrate: 4976642 kb/s
    Stream #0:0: Video: rawvideo (I420 / 0x30323449), yuv420p(progressive), 3840x2160, SAR 1:1 DAR 16:9, 50 fps, 50 tbr, 50 tbn, 50 tbc
[libx264 @ 0x3aa2120] using SAR=1/1
[libx264 @ 0x3aa2120] DPB size (16 frames, 518400 mbs) > level limit (5 frames, 184320 mbs)
[libx264 @ 0x3aa2120] using cpu capabilities: MMX2 SSE2Fast SSSE3 SSE4.2 AVX FMA3 AVX2 LZCNT BMI2
[libx264 @ 0x3aa2120] profile High, level 5.2
[libx264 @ 0x3aa2120] 264 - core 148 - H.264/MPEG-4 AVC codec - Copyleft 2003-2016 - http://www.videolan.org/x264.html - options: cabac=1 ref=16 deblock=1:0:0 analyse=0x3:0x133 me=umh subme=10 psy=1 psy_rd=1.00:0.00 mixed_ref=1 me_range=24 chroma_me=1 trellis=2 8x8dct=1 cqm=0 deadzone=21,11 fast_pskip=1 chroma_qp_offset=-2 threads=6 lookahead_threads=1 sliced_threads=0 nr=0 decimate=1 interlaced=0 bluray_compat=0 constrained_intra=0 bframes=8 b_pyramid=2 b_adapt=2 b_bias=0 direct=3 weightb=1 open_gop=0 weightp=2 keyint=250 keyint_min=25 scenecut=40 intra_refresh=0 rc_lookahead=60 rc=abr mbtree=1 bitrate=2000 ratetol=1.0 qcomp=0.60 qpmin=0 qpmax=69 qpstep=4 ip_ratio=1.40 aq=1:1.00
Output #0, matroska, to 'Output/x264/encoded/old_town_cross_2160p50veryslow2000k.mkv':
  Metadata:
    encoder         : Lavf57.57.100
    Stream #0:0: Video: h264 (libx264) (H264 / 0x34363248), yuv420p, 3840x2160 [SAR 1:1 DAR 16:9], q=-1--1, 2000 kb/s, 50 fps, 1k tbn, 50 tbc
    Metadata:
      encoder         : Lavc57.66.101 libx264
    Side data:
      cpb: bitrate max/min/avg: 0/0/2000000 buffer size: 0 vbv_delay: -1
Stream mapping:
  Stream #0:0 -> #0:0 (rawvideo (native) -> h264 (libx264))
Press [q] to stop, [?] for help
frame=   60 fps=0.0 q=0.0 size=       0kB time=00:00:00.00 bitrate=N/A speed=   0x    frame=   72 fps=8.0 q=0.0 size=       0kB time=00:00:00.00 bitrate=N/A speed=   0x    frame=   77 fps=8.0 q=47.0 size=       1kB time=-00:00:00.01 bitrate=N/A speed=N/A    frame=   82 fps=6.9 q=51.0 size=       1kB time=00:00:00.08 bitrate=  72.7kbits/s speed=0.0068x    frame=   88 fps=7.1 q=54.0 size=       1kB time=00:00:00.20 bitrate=  29.3kbits/s speed=0.0162x    frame=   89 fps=6.9 q=55.0 size=       1kB time=00:00:00.22 bitrate=  26.6kbits/s speed=0.0171x    frame=   91 fps=6.2 q=54.0 size=       1kB time=00:00:00.26 bitrate=  22.6kbits/s speed=0.0177x    frame=   97 fps=6.1 q=53.0 size=       1kB time=00:00:00.38 bitrate=  15.5kbits/s speed=0.0241x    frame=  100 fps=5.7 q=51.0 size=       1kB time=00:00:00.44 bitrate=  13.4kbits/s speed=0.025x    frame=  106 fps=5.6 q=51.0 size=       1kB time=00:00:00.56 bitrate=  10.5kbits/s speed=0.0297x    frame=  107 fps=5.5 q=50.0 size=       1kB time=00:00:00.58 bitrate=  10.1kbits/s speed=0.0299x    frame=  108 fps=5.3 q=50.0 size=       1kB time=00:00:00.60 bitrate=   9.8kbits/s speed=0.0296x    frame=  113 fps=5.4 q=50.0 size=       1kB time=00:00:00.70 bitrate=   8.4kbits/s speed=0.0336x    frame=  114 fps=5.2 q=50.0 size=       1kB time=00:00:00.72 bitrate=   8.2kbits/s speed=0.0326x    frame=  117 fps=5.0 q=49.0 size=       1kB time=00:00:00.78 bitrate=   7.5kbits/s speed=0.0335x    frame=  122 fps=5.0 q=49.0 size=       1kB time=00:00:00.88 bitrate=   6.7kbits/s speed=0.0361x    frame=  123 fps=4.9 q=49.0 size=       1kB time=00:00:00.90 bitrate=   6.5kbits/s speed=0.0355x    frame=  126 fps=4.8 q=49.0 size=       1kB time=00:00:00.96 bitrate=   6.1kbits/s speed=0.0364x    frame=  129 fps=4.8 q=49.0 size=       1kB time=00:00:01.02 bitrate=   5.8kbits/s speed=0.0379x    frame=  132 fps=4.5 q=49.0 size=       1kB time=00:00:01.08 bitrate=   5.4kbits/s speed=0.0371x    frame=  137 fps=4.6 q=49.0 size=       1kB time=00:00:01.18 bitrate=   5.0kbits/s speed=0.0393x    frame=  138 fps=4.4 q=49.0 size=       1kB time=00:00:01.20 bitrate=   4.9kbits/s speed=0.0384x    frame=  140 fps=4.4 q=49.0 size=       1kB time=00:00:01.24 bitrate=   4.7kbits/s speed=0.0386x    frame=  144 fps=4.3 q=48.0 size=       1kB time=00:00:01.32 bitrate=   4.5kbits/s speed=0.0391x    frame=  146 fps=4.2 q=48.0 size=       1kB time=00:00:01.36 bitrate=   4.3kbits/s speed=0.0389x    frame=  150 fps=4.2 q=48.0 size=       1kB time=00:00:01.44 bitrate=   4.1kbits/s speed=0.0401x    frame=  152 fps=4.1 q=48.0 size=       1kB time=00:00:01.48 bitrate=   4.0kbits/s speed=0.0395x    frame=  156 fps=4.1 q=48.0 size=       1kB time=00:00:01.56 bitrate=   3.8kbits/s speed=0.0411x    frame=  158 fps=4.0 q=48.0 size=       1kB time=00:00:01.60 bitrate=   3.7kbits/s speed=0.0403x    frame=  164 fps=3.9 q=48.0 size=       1kB time=00:00:01.72 bitrate=   3.4kbits/s speed=0.0412x    frame=  167 fps=3.9 q=48.0 size=       1kB time=00:00:01.78 bitrate=   3.3kbits/s speed=0.0412x    frame=  170 fps=3.9 q=48.0 size=       1kB time=00:00:01.84 bitrate=   3.2kbits/s speed=0.0419x    frame=  172 fps=3.9 q=48.0 size=       1kB time=00:00:01.88 bitrate=   3.1kbits/s speed=0.0423x    frame=  173 fps=3.8 q=48.0 size=       1kB time=00:00:01.90 bitrate=   3.1kbits/s speed=0.0419x    frame=  174 fps=3.8 q=48.0 size=       1kB time=00:00:01.92 bitrate=   3.1kbits/s speed=0.0415x    frame=  177 fps=3.8 q=48.0 size=       1kB time=00:00:01.98 bitrate=   3.0kbits/s speed=0.0422x    frame=  180 fps=3.7 q=48.0 size=       1kB time=00:00:02.04 bitrate=   2.9kbits/s speed=0.0422x    frame=  182 fps=3.7 q=48.0 size=       1kB time=00:00:02.08 bitrate=   2.8kbits/s speed=0.0422x    frame=  185 fps=3.7 q=48.0 size=       1kB time=00:00:02.14 bitrate=   2.8kbits/s speed=0.0426x    frame=  186 fps=3.7 q=48.0 size=       1kB time=00:00:02.16 bitrate=   2.7kbits/s speed=0.0425x    frame=  188 fps=3.7 q=48.0 size=       1kB time=00:00:02.20 bitrate=   2.7kbits/s speed=0.0428x    frame=  191 fps=3.6 q=48.0 size=       1kB time=00:00:02.26 bitrate=   2.6kbits/s speed=0.0431x    frame=  194 fps=3.6 q=48.0 size=       1kB time=00:00:02.32 bitrate=   2.5kbits/s speed=0.0426x    frame=  198 fps=3.6 q=48.0 size=       1kB time=00:00:02.40 bitrate=   2.5kbits/s speed=0.0436x    frame=  200 fps=3.5 q=48.0 size=       1kB time=00:00:02.44 bitrate=   2.4kbits/s speed=0.0429x    frame=  204 fps=3.5 q=48.0 size=       1kB time=00:00:02.52 bitrate=   2.3kbits/s speed=0.0436x    frame=  206 fps=3.5 q=48.0 size=       1kB time=00:00:02.56 bitrate=   2.3kbits/s speed=0.0432x    frame=  210 fps=3.5 q=48.0 size=       1kB time=00:00:02.64 bitrate=   2.2kbits/s speed=0.0435x    frame=  212 fps=3.4 q=48.0 size=       1kB time=00:00:02.68 bitrate=   2.2kbits/s speed=0.0432x    frame=  217 fps=3.4 q=48.0 size=       1kB time=00:00:02.78 bitrate=   2.1kbits/s speed=0.044x    frame=  219 fps=3.4 q=47.0 size=       1kB time=00:00:02.82 bitrate=   2.1kbits/s speed=0.0436x    frame=  221 fps=3.4 q=47.0 size=       1kB time=00:00:02.86 bitrate=   2.1kbits/s speed=0.0439x    frame=  225 fps=3.4 q=47.0 size=       1kB time=00:00:02.94 bitrate=   2.0kbits/s speed=0.044x    frame=  226 fps=3.3 q=47.0 size=       1kB time=00:00:02.96 bitrate=   2.0kbits/s speed=0.0437x    frame=  230 fps=3.4 q=47.0 size=       1kB time=00:00:03.04 bitrate=   1.9kbits/s speed=0.0445x    frame=  232 fps=3.4 q=47.0 size=       1kB time=00:00:03.08 bitrate=   1.9kbits/s speed=0.0446x    frame=  234 fps=3.3 q=47.0 size=       1kB time=00:00:03.12 bitrate=   1.9kbits/s speed=0.0443x    frame=  238 fps=3.3 q=47.0 size=       1kB time=00:00:03.20 bitrate=   1.8kbits/s speed=0.0449x    frame=  240 fps=3.3 q=47.0 size=       1kB time=00:00:03.24 bitrate=   1.8kbits/s speed=0.0444x    frame=  246 fps=3.3 q=47.0 size=       1kB time=00:00:03.36 bitrate=   1.8kbits/s speed=0.0449x    frame=  248 fps=3.3 q=47.0 size=       1kB time=00:00:03.40 bitrate=   1.7kbits/s speed=0.0451x    frame=  252 fps=3.3 q=47.0 size=       1kB time=00:00:03.48 bitrate=   1.7kbits/s speed=0.0451x    frame=  255 fps=3.3 q=47.0 size=       1kB time=00:00:03.54 bitrate=   1.7kbits/s speed=0.0455x    frame=  258 fps=3.2 q=47.0 size=       1kB time=00:00:03.60 bitrate=   1.6kbits/s speed=0.0453x    frame=  261 fps=3.2 q=47.0 size=       1kB time=00:00:03.66 bitrate=   1.6kbits/s speed=0.0456x    frame=  264 fps=3.2 q=47.0 size=       1kB time=00:00:03.72 bitrate=   1.6kbits/s speed=0.0454x    frame=  267 fps=3.2 q=47.0 size=       1kB time=00:00:03.78 bitrate=   1.6kbits/s speed=0.0456x    frame=  270 fps=3.2 q=47.0 size=       1kB time=00:00:03.84 bitrate=   1.5kbits/s speed=0.0455x    frame=  273 fps=3.2 q=47.0 size=       1kB time=00:00:03.90 bitrate=   1.5kbits/s speed=0.0459x    frame=  276 fps=3.2 q=47.0 size=       1kB time=00:00:03.96 bitrate=   1.5kbits/s speed=0.0459x    frame=  277 fps=3.2 q=47.0 size=       1kB time=00:00:03.98 bitrate=   1.5kbits/s speed=0.0458x    frame=  279 fps=3.2 q=47.0 size=       1kB time=00:00:04.02 bitrate=   1.5kbits/s speed=0.0457x    frame=  283 fps=3.2 q=47.0 size=       1kB time=00:00:04.10 bitrate=   1.4kbits/s speed=0.0459x    frame=  286 fps=3.2 q=47.0 size=       1kB time=00:00:04.16 bitrate=   1.4kbits/s speed=0.0459x    frame=  288 fps=3.2 q=47.0 size=       1kB time=00:00:04.20 bitrate=   1.4kbits/s speed=0.046x    frame=  290 fps=3.2 q=47.0 size=       1kB time=00:00:04.24 bitrate=   1.4kbits/s speed=0.0462x    frame=  292 fps=3.2 q=47.0 size=       1kB time=00:00:04.28 bitrate=   1.4kbits/s speed=0.0463x    frame=  293 fps=3.1 q=47.0 size=       1kB time=00:00:04.30 bitrate=   1.4kbits/s speed=0.046x    frame=  296 fps=3.1 q=47.0 size=       1kB time=00:00:04.36 bitrate=   1.4kbits/s speed=0.046x    frame=  298 fps=3.1 q=47.0 size=       1kB time=00:00:04.40 bitrate=   1.3kbits/s speed=0.0461x    frame=  300 fps=3.1 q=47.0 size=       1kB time=00:00:04.44 bitrate=   1.3kbits/s speed=0.0461x    frame=  302 fps=3.1 q=47.0 size=       1kB time=00:00:04.48 bitrate=   1.3kbits/s speed=0.0462x    frame=  304 fps=3.1 q=47.0 size=       1kB time=00:00:04.52 bitrate=   1.3kbits/s speed=0.0459x    frame=  308 fps=3.1 q=47.0 size=       1kB time=00:00:04.60 bitrate=   1.3kbits/s speed=0.0464x    frame=  310 fps=3.1 q=47.0 size=       1kB time=00:00:04.64 bitrate=   1.3kbits/s speed=0.0466x    frame=  311 fps=3.1 q=47.0 size=       1kB time=00:00:04.66 bitrate=   1.3kbits/s speed=0.0461x    frame=  313 fps=3.0 q=47.0 size=       1kB time=00:00:04.70 bitrate=   1.3kbits/s speed=0.0452x    frame=  318 fps=3.0 q=47.0 size=       1kB time=00:00:04.80 bitrate=   1.2kbits/s speed=0.0458x    frame=  319 fps=3.0 q=47.0 size=       1kB time=00:00:04.82 bitrate=   1.2kbits/s speed=0.0456x    frame=  321 fps=3.0 q=48.0 size=       1kB time=00:00:04.86 bitrate=   1.2kbits/s speed=0.0457x    frame=  325 fps=3.0 q=48.0 size=    1147kB time=00:00:04.94 bitrate=1901.3kbits/s speed=0.0459x    frame=  331 fps=3.0 q=48.0 size=    1147kB time=00:00:05.06 bitrate=1856.3kbits/s speed=0.0463x    frame=  337 fps=3.1 q=48.0 size=    1147kB time=00:00:05.18 bitrate=1813.3kbits/s speed=0.047x    frame=  340 fps=3.0 q=48.0 size=    1147kB time=00:00:05.24 bitrate=1792.5kbits/s speed=0.0467x    frame=  346 fps=3.0 q=48.0 size=    1147kB time=00:00:05.36 bitrate=1752.4kbits/s speed=0.0473x    frame=  349 fps=3.0 q=48.0 size=    1147kB time=00:00:05.42 bitrate=1733.0kbits/s speed=0.0471x    frame=  354 fps=3.1 q=48.0 size=    1147kB time=00:00:05.52 bitrate=1701.6kbits/s speed=0.0477x    frame=  355 fps=3.0 q=48.0 size=    1147kB time=00:00:05.54 bitrate=1695.5kbits/s speed=0.0475x    frame=  358 fps=3.0 q=48.0 size=    1147kB time=00:00:05.60 bitrate=1677.3kbits/s speed=0.0474x    frame=  363 fps=3.1 q=48.0 size=    1147kB time=00:00:05.70 bitrate=1647.9kbits/s speed=0.048x    frame=  364 fps=3.0 q=48.0 size=    1147kB time=00:00:05.72 bitrate=1642.1kbits/s speed=0.0477x    frame=  367 fps=3.0 q=48.0 size=    1147kB time=00:00:05.78 bitrate=1625.1kbits/s speed=0.0477x    frame=  372 fps=3.0 q=48.0 size=    1147kB time=00:00:05.88 bitrate=1597.4kbits/s speed=0.0479x    frame=  377 fps=3.0 q=48.0 size=    1147kB time=00:00:05.98 bitrate=1570.7kbits/s speed=0.0483x    frame=  378 fps=3.0 q=48.0 size=    1147kB time=00:00:06.00 bitrate=1565.5kbits/s speed=0.0479x    frame=  383 fps=3.0 q=48.0 size=    1147kB time=00:00:06.10 bitrate=1539.8kbits/s speed=0.0481x    frame=  384 fps=3.0 q=48.0 size=    1147kB time=00:00:06.12 bitrate=1534.8kbits/s speed=0.048x    frame=  387 fps=3.0 q=48.0 size=    1147kB time=00:00:06.18 bitrate=1519.9kbits/s speed=0.0479x    frame=  390 fps=3.0 q=48.0 size=    1147kB time=00:00:06.24 bitrate=1505.3kbits/s speed=0.0481x    frame=  392 fps=3.0 q=48.0 size=    1147kB time=00:00:06.28 bitrate=1495.7kbits/s speed=0.048x    frame=  394 fps=3.0 q=48.0 size=    1147kB time=00:00:06.32 bitrate=1486.2kbits/s speed=0.0481x    frame=  397 fps=3.0 q=48.0 size=    1147kB time=00:00:06.38 bitrate=1472.3kbits/s speed=0.0482x    frame=  398 fps=3.0 q=48.0 size=    1147kB time=00:00:06.40 bitrate=1467.7kbits/s speed=0.048x    frame=  401 fps=3.0 q=48.0 size=    1147kB time=00:00:06.46 bitrate=1454.0kbits/s speed=0.048x    frame=  403 fps=3.0 q=48.0 size=    1147kB time=00:00:06.50 bitrate=1445.1kbits/s speed=0.0481x    frame=  405 fps=3.0 q=48.0 size=    1147kB time=00:00:06.54 bitrate=1436.3kbits/s speed=0.0481x    frame=  407 fps=3.0 q=48.0 size=    1147kB time=00:00:06.58 bitrate=1427.5kbits/s speed=0.048x    frame=  408 fps=3.0 q=48.0 size=    1147kB time=00:00:06.60 bitrate=1423.2kbits/s speed=0.048x    frame=  410 fps=3.0 q=48.0 size=    1147kB time=00:00:06.64 bitrate=1414.6kbits/s speed=0.048x    frame=  413 fps=3.0 q=48.0 size=    1147kB time=00:00:06.70 bitrate=1402.0kbits/s speed=0.0481x    frame=  414 fps=3.0 q=48.0 size=    1147kB time=00:00:06.72 bitrate=1397.8kbits/s speed=0.048x    frame=  416 fps=3.0 q=48.0 size=    1147kB time=00:00:06.76 bitrate=1389.5kbits/s speed=0.0481x    frame=  417 fps=3.0 q=48.0 size=    1147kB time=00:00:06.78 bitrate=1385.4kbits/s speed=0.048x    frame=  419 fps=2.9 q=48.0 size=    1147kB time=00:00:06.82 bitrate=1377.3kbits/s speed=0.0479x    frame=  422 fps=3.0 q=48.0 size=    1147kB time=00:00:06.88 bitrate=1365.3kbits/s speed=0.0482x    frame=  424 fps=2.9 q=48.0 size=    1147kB time=00:00:06.92 bitrate=1357.4kbits/s speed=0.0481x    frame=  426 fps=2.9 q=48.0 size=    1147kB time=00:00:06.96 bitrate=1349.6kbits/s speed=0.0479x    frame=  428 fps=2.9 q=48.0 size=    1147kB time=00:00:07.00 bitrate=1341.9kbits/s speed=0.0479x    frame=  431 fps=2.9 q=48.0 size=    1147kB time=00:00:07.06 bitrate=1330.5kbits/s speed=0.0481x    frame=  432 fps=2.9 q=48.0 size=    1147kB time=00:00:07.08 bitrate=1326.7kbits/s speed=0.0481x    frame=  434 fps=2.9 q=48.0 size=    1147kB time=00:00:07.12 bitrate=1319.3kbits/s speed=0.048x    frame=  435 fps=2.9 q=48.0 size=    1147kB time=00:00:07.14 bitrate=1315.6kbits/s speed=0.0479x    frame=  437 fps=2.9 q=48.0 size=    1147kB time=00:00:07.18 bitrate=1308.2kbits/s speed=0.0479x    frame=  439 fps=2.9 q=48.0 size=    1147kB time=00:00:07.22 bitrate=1301.0kbits/s speed=0.048x    frame=  440 fps=2.9 q=48.0 size=    1147kB time=00:00:07.24 bitrate=1297.4kbits/s speed=0.0479x    frame=  442 fps=2.9 q=48.0 size=    1147kB time=00:00:07.28 bitrate=1290.3kbits/s speed=0.048x    frame=  443 fps=2.9 q=48.0 size=    1147kB time=00:00:07.30 bitrate=1286.7kbits/s speed=0.0479x    frame=  446 fps=2.9 q=48.0 size=    1147kB time=00:00:07.36 bitrate=1276.3kbits/s speed=0.0478x    frame=  449 fps=2.9 q=48.0 size=    1147kB time=00:00:07.42 bitrate=1265.9kbits/s speed=0.0479x    frame=  453 fps=2.9 q=48.0 size=    1147kB time=00:00:07.50 bitrate=1252.4kbits/s speed=0.0478x    frame=  458 fps=2.9 q=48.0 size=    1147kB time=00:00:07.60 bitrate=1236.0kbits/s speed=0.0483x    frame=  459 fps=2.9 q=48.0 size=    1147kB time=00:00:07.62 bitrate=1232.7kbits/s speed=0.0478x    frame=  464 fps=2.9 q=48.0 size=    1147kB time=00:00:07.72 bitrate=1216.8kbits/s speed=0.0481x    frame=  465 fps=2.9 q=48.0 size=    1147kB time=00:00:07.74 bitrate=1213.6kbits/s speed=0.0478x    frame=  466 fps=2.9 q=48.0 size=    1147kB time=00:00:07.76 bitrate=1210.5kbits/s speed=0.0478x    frame=  471 fps=2.9 q=48.0 size=    1147kB time=00:00:07.86 bitrate=1195.1kbits/s speed=0.048x    frame=  473 fps=2.9 q=48.0 size=    1147kB time=00:00:07.90 bitrate=1189.0kbits/s speed=0.0479x    frame=  476 fps=2.9 q=48.0 size=    1147kB time=00:00:07.96 bitrate=1180.1kbits/s speed=0.0481x    frame=  479 fps=2.9 q=48.0 size=    1147kB time=00:00:08.02 bitrate=1171.2kbits/s speed=0.0482x    frame=  480 fps=2.9 q=48.0 size=    1147kB time=00:00:08.04 bitrate=1168.3kbits/s speed=0.0478x    frame=  486 fps=2.9 q=48.0 size=    1147kB time=00:00:08.16 bitrate=1151.2kbits/s speed=0.0479x    frame=  489 fps=2.9 q=48.0 size=    1147kB time=00:00:08.22 bitrate=1142.7kbits/s speed=0.048x    frame=  490 fps=2.9 q=48.0 size=    1147kB time=00:00:08.24 bitrate=1140.0kbits/s speed=0.0479x    frame=  492 fps=2.8 q=48.0 size=    1147kB time=00:00:08.28 bitrate=1134.5kbits/s speed=0.0479x    frame=  496 fps=2.8 q=48.0 size=    1147kB time=00:00:08.36 bitrate=1123.6kbits/s speed=0.0478x    frame=  500 fps=2.4 q=-1.0 Lsize=    2495kB time=00:00:09.94 bitrate=2056.3kbits/s speed=0.0485x    
video:2491kB audio:0kB subtitle:0kB other streams:0kB global headers:0kB muxing overhead: 0.171159%
bench: utime=750.648s
bench: maxrss=3676980kB
[libx264 @ 0x3aa2120] frame I:3     Avg QP:44.28  size: 60027
[libx264 @ 0x3aa2120] frame P:63    Avg QP:46.59  size:  9614
[libx264 @ 0x3aa2120] frame B:434   Avg QP:46.48  size:  4065
[libx264 @ 0x3aa2120] consecutive B-frames:  0.8%  0.0%  0.0%  1.6%  4.0%  3.6% 11.2% 17.6% 61.2%
[libx264 @ 0x3aa2120] mb I  I16..4: 24.0% 75.0%  1.0%
[libx264 @ 0x3aa2120] mb P  I16..4:  0.2%  0.5%  0.0%  P16..4: 14.0%  0.2%  2.5%  0.0%  0.0%    skip:82.7%
[libx264 @ 0x3aa2120] mb B  I16..4:  0.0%  0.0%  0.0%  B16..8: 18.1%  0.0%  0.0%  direct: 0.0%  skip:81.9%  L0:42.6% L1:57.4% BI: 0.0%
[libx264 @ 0x3aa2120] final ratefactor: 40.19
[libx264 @ 0x3aa2120] 8x8 transform intra:74.4% inter:97.0%
[libx264 @ 0x3aa2120] direct mvs  spatial:99.1% temporal:0.9%
[libx264 @ 0x3aa2120] coded y,uvDC,uvAC intra: 14.2% 14.8% 1.0% inter: 0.0% 0.1% 0.0%
[libx264 @ 0x3aa2120] i16 v,h,dc,p: 22% 45%  4% 30%
[libx264 @ 0x3aa2120] i8 v,h,dc,ddl,ddr,vr,hd,vl,hu: 13%  2% 46%  5%  8%  5%  9%  4%  8%
[libx264 @ 0x3aa2120] i4 v,h,dc,ddl,ddr,vr,hd,vl,hu:  4%  5%  2% 13% 18% 11% 19%  8% 19%
[libx264 @ 0x3aa2120] i8c dc,h,v,p: 23% 67%  6%  4%
[libx264 @ 0x3aa2120] Weighted P-Frames: Y:3.2% UV:1.6%
[libx264 @ 0x3aa2120] ref P L0: 78.0%  3.6%  9.7%  2.3%  1.6%  1.3%  1.0%  0.4%  0.3%  0.3%  0.3%  0.3%  0.2%  0.2%  0.3%  0.1%
[libx264 @ 0x3aa2120] ref B L0: 96.4%  2.1%  0.8%  0.2%  0.1%  0.1%  0.1%  0.0%  0.0%  0.0%  0.0%  0.0%  0.0%  0.0%  0.0%
[libx264 @ 0x3aa2120] ref B L1: 98.4%  1.6%
[libx264 @ 0x3aa2120] kb/s:2040.12
